<svg xmlns="http://www.w3.org/2000/svg" width="32" height="32" viewBox="0 0 32 32">
    <g fill="blue" transform="translate(-337.000000, -818.000000)">
        <path fill-rule="nonzero" d="M14.178 20.48h3.151v3.15h-3.15v-3.15zm0-12.603h3.151v9.452h-3.15V7.877zM15.738 0C7.042 0 0 7.058 0 15.754s7.042 15.754 15.738 15.754c8.712 0 15.77-7.058 15.77-15.754S24.45 0 15.738 0zm.065 29.473c-7.552 0-13.67-6.117-13.67-13.67 0-7.552 6.118-13.67 13.67-13.67 7.553 0 13.67 6.118 13.67 13.67 0 7.553-6.117 13.67-13.67 13.67z" transform="translate(337.000000, 818.000000)"/>
    </g>
</svg>
