
<svg width="32" height="32" viewBox="0 0 32 32" fill="none" xmlns="http://www.w3.org/2000/svg">
<path d="M27.314 4.686C24.292 1.664 20.274 0 16 0C11.726 0 7.708 1.664 4.686 4.686C1.664 7.708 0 11.726 0 16C0 20.274 1.664 24.292 4.686 27.314C7.708 30.336 11.726 32 16 32C20.274 32 24.292 30.336 27.314 27.314C30.336 24.292 32 20.274 32 16C32 11.726 30.336 7.708 27.314 4.686ZM16 30.125C8.211 30.125 1.875 23.789 1.875 16C1.875 8.211 8.211 1.875 16 1.875C23.789 1.875 30.125 8.211 30.125 16C30.125 23.789 23.789 30.125 16 30.125Z" fill="#1563FF"/>
<path d="M23.644 10.8661C23.278 10.5001 22.684 10.5001 22.318 10.8661L14.04 19.1451L9.68204 14.7871C9.31604 14.4211 8.72204 14.4211 8.35604 14.7871C7.99004 15.1531 7.99004 15.7471 8.35604 16.1131L13.376 21.1331C13.56 21.3171 13.8 21.4081 14.04 21.4081C14.28 21.4081 14.52 21.3171 14.702 21.1341L23.644 12.1921C24.01 11.8261 24.01 11.2321 23.644 10.8661Z" fill="#1563FF"/>
</svg>
