<svg width="32" height="32" viewBox="0 0 32 32" fill="none" xmlns="http://www.w3.org/2000/svg">
<path d="M27.314 4.686C24.292 1.664 20.274 0 16 0C11.726 0 7.708 1.664 4.686 4.686C1.664 7.708 0 11.726 0 16C0 20.274 1.664 24.292 4.686 27.314C7.708 30.336 11.726 32 16 32C20.274 32 24.292 30.336 27.314 27.314C30.336 24.292 32 20.274 32 16C32 11.726 30.336 7.708 27.314 4.686ZM16 30.125C8.211 30.125 1.875 23.789 1.875 16C1.875 8.211 8.211 1.875 16 1.875C23.789 1.875 30.125 8.211 30.125 16C30.125 23.789 23.789 30.125 16 30.125Z" fill="#FF3535"/>
<path d="M21.8333 23C21.5339 23 21.2358 22.8857 21.0085 22.6584L9.34195 10.9911C8.88602 10.5351 8.88602 9.79743 9.34195 9.34146C9.79789 8.88686 10.5369 8.8855 10.9915 9.34146L22.658 21.0087C23.114 21.4647 23.114 22.2024 22.658 22.6584C22.4294 22.8857 22.1313 22.9986 21.8333 22.9986V23Z" fill="#FF3535"/>
<path d="M10.1668 23C9.86733 23 9.57062 22.8857 9.34197 22.6584C8.88601 22.2024 8.88601 21.4634 9.34197 21.0088L21.0089 9.34196C21.4649 8.88601 22.2026 8.88601 22.6585 9.34196C23.1131 9.79791 23.1145 10.537 22.6585 10.9915L10.9916 22.6584C10.7643 22.8857 10.4662 22.9986 10.1668 22.9986V23Z" fill="#FF3535"/>
</svg>
